<?xml version="1.0" encoding="UTF-8"?>
<!-- Generated by Pixelmator Pro 3.7.1 -->
<svg width="100" height="100" viewBox="0 0 100 100" xmlns="http://www.w3.org/2000/svg">
    <path id="Path" fill="#1a6fd4" stroke="none" d="M 22 0 L 78 0 C 90.150261 0 100 9.849731 100 22 L 100 78 C 100 90.150261 90.150261 100 78 100 L 22 100 C 9.849735 100 0 90.150261 0 78 L 0 22 C -0 9.849731 9.849735 0 22 0 Z"/>
    <g id="Group">
        <path id="path1" fill="#ffffff" stroke="none" d="M 43 24 L 55 24 C 56.104568 24 57 24.895432 57 26 L 57 26 C 57 27.104568 56.104568 28 55 28 L 43 28 C 41.895432 28 41 27.104568 41 26 L 41 26 C 41 24.895432 41.895432 24 43 24 Z"/>
        <path id="path2" fill="#ffffff" stroke="none" d="M 31 30 L 67 30 C 68.104568 30 69 30.895432 69 32 L 69 34 C 69 35.104568 68.104568 36 67 36 L 31 36 C 29.89543 36 29 35.104568 29 34 L 29 32 C 29 30.895432 29.89543 30 31 30 Z"/>
        <path id="path3" fill="#ffffff" stroke="none" d="M 33 38 L 35 68 C 35 70 36.333333 71 39 71 L 59 71 C 61.666667 71 63 70 63 68 L 65 38 Z"/>
        <path id="path4" fill="#000000" stroke="#1a6fd4" stroke-width="2.2" stroke-linecap="round" d="M 43 42 L 43 66"/>
        <path id="path5" fill="#000000" stroke="#1a6fd4" stroke-width="2.2" stroke-linecap="round" d="M 49 42 L 49 66"/>
        <path id="path6" fill="#000000" stroke="#1a6fd4" stroke-width="2.2" stroke-linecap="round" d="M 55 42 L 55 66"/>
        <path id="path7" fill="#1a6fd4" stroke="none" d="M 71 63 C 71 70.731987 64.731987 77 57 77 C 49.268013 77 43 70.731987 43 63 C 43 55.268013 49.268013 49 57 49 C 64.731987 49 71 55.268013 71 63 Z"/>
        <path id="path8" fill="#ffffff" stroke="none" d="M 69 63 C 69 69.627419 63.627419 75 57 75 C 50.372581 75 45 69.627419 45 63 C 45 56.372581 50.372581 51 57 51 C 63.627419 51 69 56.372581 69 63 Z"/>
        <path id="path9" fill="#000000" stroke="#1a6fd4" stroke-width="2.2" stroke-linecap="round" d="M 57 63 L 57 55"/>
        <path id="path10" fill="#000000" stroke="#1a6fd4" stroke-width="2.2" stroke-linecap="round" d="M 57 63 L 63 66"/>
        <path id="path11" fill="#1a6fd4" stroke="none" d="M 58.400002 63 C 58.400002 63.773197 57.773197 64.400002 57 64.400002 C 56.226803 64.400002 55.599998 63.773197 55.599998 63 C 55.599998 62.226803 56.226803 61.599998 57 61.599998 C 57.773197 61.599998 58.400002 62.226803 58.400002 63 Z"/>
    </g>
</svg>